<?xml version="1.0" encoding="UTF-8"?>
<svg width="1rem" height="1em" viewBox="0 0 24 24" version="1.1" xmlns="http://www.w3.org/2000/svg" xmlns:xlink="http://www.w3.org/1999/xlink">
    <g id="Iconly/Broken/Buy" stroke="none" stroke-width="1" fill="none" fill-rule="evenodd">
        <g id="Buy" transform="translate(2.000000, 2.000000)" fill="currentColor" fill-rule="nonzero">
            <path d="M5.42291008,16.9090176 C6.25788912,16.9090176 6.93687207,17.6029325 6.93687207,18.455019 C6.93687207,19.3071056 6.25788912,20 5.42291008,20 C4.58793104,20 3.90794811,19.3071056 3.90794811,18.455019 C3.90794811,17.6029325 4.58793104,16.9090176 5.42291008,16.9090176 Z M16.6746276,16.9090176 C17.5096066,16.9090176 18.1895896,17.6029325 18.1895896,18.455019 C18.1895896,19.3071056 17.5096066,20 16.6746276,20 C15.8396486,20 15.1606656,19.3071056 15.1606656,18.455019 C15.1606656,17.6029325 15.8396486,16.9090176 16.6746276,16.9090176 Z M0.775445852,0.000319879953 L0.877924182,0.0101506943 L2.95887194,0.37853783 C3.29486351,0.437724683 3.5498571,0.722433854 3.5778564,1.06939127 L3.5778564,1.06939127 L4.54083222,12.7761426 C4.58683107,13.3373972 5.03781975,13.7608893 5.59080587,13.7608893 L5.59080587,13.7608893 L16.501532,13.7608893 C17.0215189,13.7608893 17.4695076,13.3649497 17.5445058,12.8404317 L17.5445058,12.8404317 L18.4934819,6.14721505 C18.5274811,5.91046764 18.4214838,5.74413218 18.3554854,5.66555653 C18.2894871,5.58800134 18.1434907,5.45738208 17.9084966,5.45738208 L17.9084966,5.45738208 L7.16376638,5.45738208 C6.74977677,5.45738208 6.4137852,5.11450652 6.4137852,4.69203484 C6.4137852,4.26956317 6.74977677,3.92668761 7.16376638,3.92668761 L7.16376638,3.92668761 L17.9084966,3.92668761 C18.5154814,3.92668761 19.0924669,4.19608984 19.4894569,4.66448234 C19.886447,5.13287485 20.0654425,5.75229588 19.9784447,6.36661459 L19.9784447,6.36661459 L19.0284685,13.0598313 C18.848473,14.3323486 17.7625003,15.2915838 16.501532,15.2915838 L16.501532,15.2915838 L5.59080587,15.2915838 C4.25183948,15.2915838 3.15786694,14.2649981 3.04586976,12.9037004 L3.04586976,12.9037004 L2.1318927,1.78575628 L0.621930609,1.51941544 C0.213940852,1.44696257 -0.0590522947,1.05102293 0.010945948,0.634674038 C0.0809441907,0.217304679 0.464934551,-0.0571998623 0.877924182,0.0101506943 Z M14.8987722,7.69893106 C15.3127618,7.69893106 15.6487534,8.04180662 15.6487534,8.46427829 C15.6487534,8.88674997 15.3127618,9.22962553 14.8987722,9.22962553 L14.8987722,9.22962553 L12.1258418,9.22962553 C11.7108522,9.22962553 11.3758606,8.88674997 11.3758606,8.46427829 C11.3758606,8.04180662 11.7108522,7.69893106 12.1258418,7.69893106 L12.1258418,7.69893106 Z"></path>
        </g>
    </g>
</svg>