<svg fill="#ffffff" xmlns="http://www.w3.org/2000/svg"  viewBox="0 0 100 100" width="1.3em" height="1.3em"><path d="M 31 17 C 23.27961 17 17 23.27961 17 31 L 17 69 C 17 76.72039 23.27961 83 31 83 L 69 83 C 76.72039 83 83 76.72039 83 69 L 83 31 C 83 23.27961 76.72039 17 69 17 L 31 17 z M 31 19 L 69 19 C 75.63961 19 81 24.36039 81 31 L 81 69 C 81 75.63961 75.63961 81 69 81 L 31 81 C 24.36039 81 19 75.63961 19 69 L 19 31 C 19 24.36039 24.36039 19 31 19 z M 33.5 22 C 27.154767 22 22 27.154767 22 33.5 A 0.50005 0.50005 0 1 0 23 33.5 C 23 27.695233 27.695233 23 33.5 23 L 36.5 23 A 0.50005 0.50005 0 1 0 36.5 22 L 33.5 22 z M 49.5 26 A 0.50005 0.50005 0 0 0 49 26.5 L 49 40.5 L 49 45.394531 L 49 57.5 C 49 61.087773 46.088756 64 42.5 64 C 41.817522 64 41.16108 63.892525 40.542969 63.697266 C 39.582138 62.564083 39 61.100903 39 59.5 C 39 55.912227 41.911244 53 45.5 53 C 45.813529 53 46.122337 53.025483 46.427734 53.070312 A 0.50005 0.50005 0 0 0 47 52.574219 L 47 45.537109 A 0.50005 0.50005 0 0 0 46.537109 45.039062 C 46.194864 45.013135 45.849859 45 45.5 45 C 44.993719 45 44.493103 45.027152 44 45.078125 L 44 43.537109 A 0.50005 0.50005 0 0 0 43.537109 43.039062 C 43.194864 43.013135 42.849859 43 42.5 43 C 34.508843 43 28 49.508843 28 57.5 C 28 63.167219 31.280845 68.075682 36.035156 70.458984 C 38.578458 72.658908 41.883826 74 45.5 74 C 53.491157 74 60 67.491157 60 59.5 L 60 43.208984 C 63.936751 45.978698 68.414189 47 71.5 47 A 0.50005 0.50005 0 0 0 72 46.5 L 72 39.5 A 0.50005 0.50005 0 0 0 71.5 39 C 71.396906 39 70.379404 38.984789 69 38.667969 L 69 37.5 A 0.50005 0.50005 0 0 0 68.5 37 C 68.340213 37 65.994199 36.952927 63.484375 35.808594 C 61.835154 34.258786 60.462627 31.9597 60.025391 28.4375 A 0.50005 0.50005 0 0 0 59.529297 28 L 57.302734 28 C 57.191022 27.505201 57.093955 26.989824 57.025391 26.4375 A 0.50005 0.50005 0 0 0 56.529297 26 L 49.5 26 z M 50 27 L 56.140625 27 C 56.193065 27.343629 56.254649 27.676708 56.324219 28 L 52.5 28 A 0.50005 0.50005 0 0 0 52 28.5 L 52 42.5 L 52 47.394531 L 52 59.5 C 52 63.087773 49.088756 66 45.5 66 C 44.213198 66 43.017425 65.62034 42.007812 64.974609 C 42.171174 64.985321 42.334008 65 42.5 65 C 46.631244 65 50 61.630227 50 57.5 L 50 45.394531 L 50 40.5 L 50 27 z M 53 29 L 56.576172 29 C 57.724394 33.008933 60.211877 35.305934 62.630859 36.521484 C 62.763811 36.588293 62.89094 36.638554 63.021484 36.699219 C 63.857016 37.465184 64.744788 38.076229 65.630859 38.521484 C 66.481728 38.94905 67.279027 39.240151 68 39.449219 L 68 43.917969 C 64.928876 43.826351 60.524737 42.821132 56.808594 39.908203 A 0.50005 0.50005 0 0 0 56 40.302734 L 56 57.5 C 56 64.948843 49.948843 71 42.5 71 C 40.380323 71 38.381788 70.495825 36.595703 69.623047 C 33.78481 67.148001 32 63.534459 32 59.5 C 32 52.906268 36.744618 47.41773 43 46.242188 L 43 50.037109 C 42.833003 50.025162 42.67088 50 42.5 50 C 38.368756 50 35 53.369773 35 57.5 C 35 60.745018 37.083549 63.512036 39.978516 64.552734 C 41.351303 66.051443 43.315425 67 45.5 67 C 49.631244 67 53 63.630227 53 59.5 L 53 47.394531 L 53 42.5 L 53 29 z M 57.5625 29 L 59.140625 29 C 59.471279 31.166712 60.166524 32.90471 61.050781 34.320312 C 59.606081 33.150405 58.312861 31.466753 57.5625 29 z M 66.380859 37.763672 C 67.097339 37.88732 67.687583 37.938137 68 37.949219 L 68 38.396484 C 67.482183 38.235629 66.93348 38.021976 66.380859 37.763672 z M 69 39.703125 C 69.921455 39.894109 70.629275 39.936069 71 39.949219 L 71 45.917969 C 69.08161 45.860739 66.643798 45.448037 64.177734 44.435547 C 65.759811 44.820798 67.24732 45 68.5 45 A 0.50005 0.50005 0 0 0 69 44.5 L 69 39.703125 z M 57 41.208984 C 57.653961 41.669081 58.325056 42.064705 59 42.431641 L 59 59.5 C 59 66.948843 52.948843 73 45.5 73 C 43.481261 73 41.572356 72.54236 39.851562 71.746094 C 40.711477 71.905845 41.594733 72 42.5 72 C 50.491157 72 57 65.491157 57 57.5 L 57 41.208984 z M 42.5 44 C 42.66832 44 42.833561 44.012921 43 44.019531 L 43 45.230469 C 36.196604 46.421303 31 52.362503 31 59.5 C 31 62.420979 31.877291 65.138577 33.371094 67.417969 C 30.691474 64.949913 29 61.425165 29 57.5 C 29 50.051157 35.051157 44 42.5 44 z M 45.5 46 C 45.66832 46 45.833561 46.012921 46 46.019531 L 46 52.037109 C 45.833003 52.025162 45.67088 52 45.5 52 C 41.368756 52 38 55.369773 38 59.5 C 38 60.697837 38.291805 61.827721 38.794922 62.833984 C 37.107929 61.659374 36 59.709865 36 57.5 C 36 53.912227 38.911244 51 42.5 51 C 42.813529 51 43.122337 51.025483 43.427734 51.070312 A 0.50005 0.50005 0 0 0 44 50.574219 L 44 46.087891 C 44.493127 46.033168 44.992421 46 45.5 46 z M 77.492188 65.992188 A 0.50005 0.50005 0 0 0 77 66.5 C 77 66.818276 76.980252 67.135237 76.951172 67.455078 A 0.5000688 0.5000688 0 1 0 77.947266 67.544922 C 77.978191 67.204767 78 66.857724 78 66.5 A 0.50005 0.50005 0 0 0 77.492188 65.992188 z M 77.058594 68.994141 A 0.50005 0.50005 0 0 0 76.595703 69.363281 C 76.304388 70.391004 75.864369 71.353791 75.294922 72.226562 A 0.50005 0.50005 0 1 0 76.130859 72.773438 C 76.755412 71.816209 77.237956 70.760996 77.556641 69.636719 A 0.50005 0.50005 0 0 0 77.058594 68.994141 z M 74.039062 73.994141 A 0.50005 0.50005 0 0 0 73.691406 74.136719 C 71.810391 75.908828 69.288247 77 66.5 77 A 0.50005 0.50005 0 1 0 66.5 78 C 69.549753 78 72.319968 76.801172 74.376953 74.863281 A 0.50005 0.50005 0 0 0 74.039062 73.994141 z"/></svg>